<svg width="512" height="512" viewBox="0 0 512 512" fill="none" xmlns="http://www.w3.org/2000/svg">
  <rect width="512" height="512" rx="64" fill="#a7f3d0"/>
  <path d="M256 96C256 96 200 120 200 180C200 220 220 240 256 240C292 240 312 220 312 180C312 120 256 96 256 96Z" fill="#047857"/>
  <path d="M256 240V416" stroke="#047857" stroke-width="12" stroke-linecap="round"/>
  <path d="M200 300C200 300 220 280 256 280C292 280 312 300 312 300" stroke="#047857" stroke-width="8" stroke-linecap="round"/>
  <path d="M220 360C220 360 235 345 256 345C277 345 292 360 292 360" stroke="#047857" stroke-width="6" stroke-linecap="round"/>
  <circle cx="256" cy="180" r="20" fill="#34d399"/>
  <circle cx="240" cy="165" r="8" fill="#10b981"/>
  <circle cx="272" cy="195" r="6" fill="#10b981"/>
</svg>